<?xml version="1.0" encoding="UTF-8"?>
<svg width="9px" height="15px" viewBox="0 0 9 15" version="1.1" xmlns="http://www.w3.org/2000/svg" xmlns:xlink="http://www.w3.org/1999/xlink">
    <!-- Generator: Sketch 51.3 (57544) - http://www.bohemiancoding.com/sketch -->
    <title>Facebook</title>
    <desc>Created with Sketch.</desc>
    <defs></defs>
    <g id="Symbols" stroke="none" stroke-width="1" fill="none" fill-rule="evenodd">
        <g id="Site/Header" transform="translate(-721.000000, -10.000000)" fill="#000000">
            <g id="Header">
                <path d="M723.664,15.296 L723.664,13.904 C723.664,13.3919974 723.751999,12.9120022 723.928,12.464 C724.104001,12.0159978 724.343998,11.6280016 724.648,11.3 C724.952002,10.9719984 725.307998,10.712001 725.716,10.52 C726.124002,10.327999 726.559998,10.232 727.024,10.232 L729.28,10.232 L729.28,12.992 L727.024,12.992 C726.895999,12.992 726.772001,13.0759992 726.652,13.244 C726.531999,13.4120008 726.472,13.6159988 726.472,13.856 L726.472,15.296 L729.28,15.296 L729.28,18.104 L726.472,18.104 L726.472,24.92 L723.664,24.92 L723.664,18.104 L721.408,18.104 L721.408,15.296 L723.664,15.296 Z" id="Facebook"></path>
            </g>
        </g>
    </g>
</svg>