<?xml version="1.0" encoding="UTF-8"?>
<svg width="15px" height="13px" viewBox="0 0 15 13" version="1.1" xmlns="http://www.w3.org/2000/svg" xmlns:xlink="http://www.w3.org/1999/xlink">
    <!-- Generator: Sketch 51.3 (57544) - http://www.bohemiancoding.com/sketch -->
    <title>Twitter</title>
    <desc>Created with Sketch.</desc>
    <defs></defs>
    <g id="Symbols" stroke="none" stroke-width="1" fill="none" fill-rule="evenodd">
        <g id="Site/Header" transform="translate(-757.000000, -11.000000)" fill="#000000">
            <g id="Header">
                <path d="M771.376,13.208 C770.991998,13.7680028 770.512003,14.2719978 769.936,14.72 L769.936,15.056 C769.936,16.0160048 769.756002,16.9879951 769.396,17.972 C769.035998,18.9560049 768.508003,19.843996 767.812,20.636 C767.115997,21.428004 766.260005,22.0719975 765.244,22.568 C764.227995,23.0640025 763.056007,23.312 761.728,23.312 C760.911996,23.312 760.132004,23.1960012 759.388,22.964 C758.643996,22.7319988 757.944003,22.4080021 757.288,21.992 C757.400001,22.0080001 757.511999,22.016 757.624,22.016 L757.984,22.016 C759.360007,22.016 760.551995,21.6080041 761.56,20.792 C760.919997,20.7759999 760.356002,20.5800019 759.868,20.204 C759.379998,19.8279981 759.048001,19.3520029 758.872,18.776 C759.064001,18.8240002 759.239999,18.848 759.4,18.848 C759.544001,18.848 759.675999,18.8400001 759.796,18.824 C759.916001,18.8079999 760.039999,18.7840002 760.168,18.752 C759.495997,18.6079993 758.940002,18.2760026 758.5,17.756 C758.059998,17.2359974 757.84,16.6240035 757.84,15.92 L757.84,15.896 C758.032001,15.9920005 758.235999,16.0719997 758.452,16.136 C758.668001,16.2000003 758.911999,16.232 759.184,16.232 C758.767998,15.9759987 758.448001,15.6400021 758.224,15.224 C757.999999,14.8079979 757.888,14.3440026 757.888,13.832 C757.888,13.3199974 758.015999,12.8320023 758.272,12.368 C758.992004,13.2640045 759.863995,13.9799973 760.888,14.516 C761.912005,15.0520027 763.023994,15.3439998 764.224,15.392 C764.176,15.199999 764.152,14.9920011 764.152,14.768 C764.152,14.367998 764.227999,13.9880018 764.38,13.628 C764.532001,13.2679982 764.739999,12.9560013 765.004,12.692 C765.268001,12.4279987 765.571998,12.2200008 765.916,12.068 C766.260002,11.9159992 766.631998,11.84 767.032,11.84 C767.464002,11.84 767.855998,11.9239992 768.208,12.092 C768.560002,12.2600008 768.871999,12.4799986 769.144,12.752 C769.464002,12.7039998 769.783998,12.6160006 770.104,12.488 C770.424002,12.3599994 770.719999,12.2240007 770.992,12.08 C770.735999,12.7520034 770.312003,13.2799981 769.72,13.664 C770.024002,13.6319998 770.311999,13.5760004 770.584,13.496 C770.856001,13.4159996 771.119999,13.3200006 771.376,13.208 Z" id="Twitter"></path>
            </g>
        </g>
    </g>
</svg>