<?xml version="1.0" encoding="UTF-8"?>
<svg width="14px" height="15px" viewBox="0 0 14 15" version="1.1" xmlns="http://www.w3.org/2000/svg" xmlns:xlink="http://www.w3.org/1999/xlink">
    <!-- Generator: Sketch 51.3 (57544) - http://www.bohemiancoding.com/sketch -->
    <title>YouTube</title>
    <desc>Created with Sketch.</desc>
    <defs></defs>
    <g id="Symbols" stroke="none" stroke-width="1" fill="none" fill-rule="evenodd">
        <g id="Site/Header" transform="translate(-797.000000, -10.000000)" fill="#000000">
            <g id="Header">
                <path d="M805.672,23.72 C805.72,23.7840003 805.792,23.8399998 805.888,23.888 C805.92,23.888 805.952,23.8959999 805.984,23.912 C806.016,23.9280001 806.056,23.936 806.104,23.936 C806.168,23.936 806.216,23.9240001 806.248,23.9 C806.28,23.8759999 806.32,23.8480002 806.368,23.816 C806.384,23.7839998 806.392,23.6800009 806.392,23.504 L806.392,21.176 C806.392,20.9999991 806.368,20.8800003 806.32,20.816 C806.272,20.7359996 806.184001,20.696 806.056,20.696 C806.008,20.696 805.972,20.7039999 805.948,20.72 C805.924,20.7360001 805.888,20.744 805.84,20.744 C805.808,20.7760002 805.78,20.796 805.756,20.804 C805.732,20.812 805.704,20.8319998 805.672,20.864 L805.672,23.72 Z M808.864,20.816 C808.816,20.8640002 808.788,20.9279996 808.78,21.008 C808.772,21.0880004 808.768,21.1679996 808.768,21.248 L808.768,21.68 L809.56,21.68 L809.56,21.248 C809.56,21.0879992 809.528,20.9440006 809.464,20.816 C809.432,20.7999999 809.392,20.7840001 809.344,20.768 C809.296,20.7519999 809.24,20.744 809.176,20.744 C809.096,20.744 809.032,20.7519999 808.984,20.768 C808.936,20.7840001 808.896,20.7999999 808.864,20.816 Z M804.328,16.472 C804.440001,16.472 804.544,16.4240005 804.64,16.328 C804.72,16.2479996 804.76,16.1520006 804.76,16.04 L804.76,13.304 C804.76,13.1759994 804.72,13.0880002 804.64,13.04 C804.527999,12.9599996 804.424,12.92 804.328,12.92 C804.167999,12.92 804.064,12.9599996 804.016,13.04 C803.936,13.0880002 803.896,13.1759994 803.896,13.304 L803.896,16.04 C803.896,16.1360005 803.928,16.2319995 803.992,16.328 C804.056,16.4240005 804.167999,16.472 804.328,16.472 Z M801.088,18.44 L801.088,19.304 L800.008,19.304 L800.008,24.584 L799.024,24.584 L799.024,19.304 L797.944,19.304 L797.944,18.44 L801.088,18.44 Z M800.824,13.136 L800.872,13.136 L801.616,10.424 L802.768,10.424 L801.424,14.384 L801.424,17.192 L800.272,17.192 L800.272,14.528 L798.928,10.424 L800.056,10.424 L800.824,13.136 Z M802.864,13.352 C802.864,12.9679981 802.991999,12.6480013 803.248,12.392 C803.408001,12.2799994 803.575999,12.1960003 803.752,12.14 C803.928001,12.0839997 804.135999,12.056 804.376,12.056 C804.808002,12.056 805.151999,12.1839987 805.408,12.44 C805.536001,12.5520006 805.632,12.6879992 805.696,12.848 C805.76,13.0080008 805.792,13.1759991 805.792,13.352 L805.792,15.944 C805.792,16.3920022 805.664001,16.719999 805.408,16.928 C805.135999,17.2000014 804.776002,17.336 804.328,17.336 C803.879998,17.336 803.520001,17.2000014 803.248,16.928 C802.991999,16.6879988 802.864,16.3600021 802.864,15.944 L802.864,13.352 Z M806.488,20 C806.744001,20 806.959999,20.0879991 807.136,20.264 C807.2,20.3760006 807.252,20.4999993 807.292,20.636 C807.332,20.7720007 807.352,20.935999 807.352,21.128 L807.352,23.624 C807.352,23.8000009 807.332,23.9479994 807.292,24.068 C807.252,24.1880006 807.2,24.2879996 807.136,24.368 C807.007999,24.5440009 806.808001,24.632 806.536,24.632 C806.375999,24.632 806.216001,24.6000003 806.056,24.536 C805.992,24.5039998 805.928,24.4640002 805.864,24.416 C805.8,24.3679998 805.736,24.3120003 805.672,24.248 L805.672,24.584 L804.76,24.584 L804.76,18.44 L805.672,18.44 L805.672,20.384 C805.736,20.3199997 805.8,20.2640002 805.864,20.216 C805.928,20.1679998 805.992,20.1280002 806.056,20.096 C806.12,20.0479998 806.188,20.02 806.26,20.012 C806.332,20.004 806.408,20 806.488,20 Z M807.664,12.176 L807.664,16.04 C807.664,16.1840007 807.672,16.2639999 807.688,16.28 C807.752,16.3440003 807.824,16.376 807.904,16.376 C807.984,16.376 808.087999,16.3360004 808.216,16.256 C808.328001,16.2079998 808.432,16.1200006 808.528,15.992 L808.528,12.176 L809.56,12.176 L809.56,17.192 L808.528,17.192 L808.528,16.64 C808.432,16.7520006 808.332001,16.8399997 808.228,16.904 C808.123999,16.9680003 808.016001,17.0399996 807.904,17.12 C807.824,17.1520002 807.732001,17.1879998 807.628,17.228 C807.523999,17.2680002 807.432,17.288 807.352,17.288 C807.111999,17.288 806.928001,17.2000009 806.8,17.024 C806.752,16.9599997 806.708,16.8760005 806.668,16.772 C806.628,16.6679995 806.608,16.5360008 806.608,16.376 L806.608,12.176 L807.664,12.176 Z M810.496,22.424 L808.768,22.424 L808.768,23.288 C808.768,23.5440013 808.8,23.7039997 808.864,23.768 C808.912,23.8480004 809.015999,23.888 809.176,23.888 C809.24,23.888 809.296,23.8800001 809.344,23.864 C809.392,23.8479999 809.432,23.8320001 809.464,23.816 C809.512,23.7679998 809.54,23.7000004 809.548,23.612 C809.556,23.5239996 809.56,23.4160006 809.56,23.288 L809.56,23.072 L810.496,23.072 L810.496,23.288 C810.496,23.7360022 810.384001,24.0959986 810.16,24.368 C809.935999,24.5920011 809.592002,24.704 809.128,24.704 C808.743998,24.704 808.424001,24.5760013 808.168,24.32 C807.943999,24.0479986 807.832,23.7040021 807.832,23.288 L807.832,21.248 C807.832,20.8799982 807.959999,20.5680013 808.216,20.312 C808.472001,20.0559987 808.799998,19.928 809.2,19.928 C809.616002,19.928 809.935999,20.0399989 810.16,20.264 C810.272001,20.3920006 810.356,20.5319992 810.412,20.684 C810.468,20.8360008 810.496,21.0239989 810.496,21.248 L810.496,22.424 Z M803.152,24.584 L803.152,24.056 C802.975999,24.2800011 802.808001,24.4239997 802.648,24.488 C802.471999,24.5840005 802.296001,24.632 802.12,24.632 C801.895999,24.632 801.736,24.5760006 801.64,24.464 C801.527999,24.2879991 801.472,24.0800012 801.472,23.84 L801.472,20.048 L802.384,20.048 L802.384,23.504 C802.384,23.5680003 802.392,23.6199998 802.408,23.66 C802.424,23.7000002 802.432,23.7359998 802.432,23.768 C802.464,23.8000002 802.535999,23.816 802.648,23.816 C802.68,23.816 802.712,23.812 802.744,23.804 C802.776,23.796 802.832,23.7680002 802.912,23.72 C803.008,23.6559997 803.088,23.5840004 803.152,23.504 L803.152,20.048 L804.064,20.048 L804.064,24.584 L803.152,24.584 Z" id="YouTube"></path>
            </g>
        </g>
    </g>
</svg>