<svg width="24" height="22" viewBox="0 0 24 22" fill="none" xmlns="http://www.w3.org/2000/svg">
<path d="M0.75 5H20.25C20.6644 5 21 4.66437 21 4.25V1.25C21 0.835625 20.6644 0.5 20.25 0.5H0.75C0.335625 0.5 0 0.835625 0 1.25V4.25C0 4.66437 0.335625 5 0.75 5ZM23.25 8.75H3.75C3.33562 8.75 3 9.08562 3 9.5V12.5C3 12.9144 3.33562 13.25 3.75 13.25H23.25C23.6644 13.25 24 12.9144 24 12.5V9.5C24 9.08562 23.6644 8.75 23.25 8.75ZM20.25 17H0.75C0.335625 17 0 17.3356 0 17.75V20.75C0 21.1644 0.335625 21.5 0.75 21.5H20.25C20.6644 21.5 21 21.1644 21 20.75V17.75C21 17.3356 20.6644 17 20.25 17Z" fill="white"/>
</svg>
