<?xml version="1.0" encoding="UTF-8"?>
<svg width="14px" height="13px" viewBox="0 0 14 13" version="1.1" xmlns="http://www.w3.org/2000/svg" xmlns:xlink="http://www.w3.org/1999/xlink">
    <!-- Generator: Sketch 51.3 (57544) - http://www.bohemiancoding.com/sketch -->
    <title>Instagram</title>
    <desc>Created with Sketch.</desc>
    <defs></defs>
    <g id="Symbols" stroke="none" stroke-width="1" fill="none" fill-rule="evenodd">
        <g id="Site/Header" transform="translate(-836.000000, -11.000000)" fill="#000000">
            <g id="Header">
                <path d="M838.528,11.288 L847.888,11.288 C848.776,11.288 849.496,12.008 849.496,12.896 L849.496,22.256 C849.496,23.168 848.776,23.888 847.888,23.888 L838.528,23.888 C837.616,23.888 836.896,23.168 836.896,22.256 L836.896,12.896 C836.896,12.008 837.616,11.288 838.528,11.288 Z M847.504,12.656 L846.064,12.656 C845.8,12.656 845.512,12.944 845.512,13.232 L845.512,14.624 C845.512,14.888 845.8,15.176 846.064,15.176 L847.504,15.176 C847.816,15.176 848.08,14.888 848.08,14.624 L848.08,13.232 C848.08,12.944 847.816,12.656 847.504,12.656 Z M848.08,21.92 L848.08,16.616 L846.952,16.616 C847.096,16.952 847.12,17.288 847.12,17.696 C847.12,19.808 845.392,21.488 843.208,21.488 C841.048,21.488 839.296,19.808 839.296,17.696 C839.296,17.288 839.344,16.952 839.488,16.616 L838.288,16.616 L838.288,21.92 C838.288,22.208 838.528,22.424 838.816,22.424 L847.576,22.424 C847.84,22.424 848.08,22.208 848.08,21.92 Z M843.208,15.104 C841.816,15.104 840.688,16.184 840.688,17.576 C840.688,18.896 841.816,20 843.208,20 C844.624,20 845.752,18.896 845.752,17.576 C845.752,16.184 844.624,15.104 843.208,15.104 Z" id="Instagram"></path>
            </g>
        </g>
    </g>
</svg>