<svg xmlns="http://www.w3.org/2000/svg" viewBox="0 0 74.35 74.35"><defs><style>.a{fill:#fff;}</style></defs><title>facebook</title><path class="a" d="M0,66.61V7.75A7.46,7.46,0,0,1,2.28,2.28,7.46,7.46,0,0,1,7.75,0H66.61a7.46,7.46,0,0,1,5.47,2.28,7.46,7.46,0,0,1,2.28,5.47V66.61a7.72,7.72,0,0,1-7.75,7.75h-17v-31h9.29V34.08H49.6V28.91a4.18,4.18,0,0,1,1-3.16q1-1,3.9-1h4.34V12.39H46.47a10.62,10.62,0,0,0-2.76.34,9.23,9.23,0,0,0-2.17.85,6,6,0,0,0-1.61,1.35,11.58,11.58,0,0,0-1.16,1.6A8.4,8.4,0,0,0,38,18.36q-.33,1.07-.48,1.83A14.45,14.45,0,0,0,37.29,22q-.08,1.05-.09,1.53t0,1.25v9.29H31v9.29h6.2v31H7.75a7.46,7.46,0,0,1-5.47-2.28A7.46,7.46,0,0,1,0,66.61Z"/></svg>