<svg xmlns="http://www.w3.org/2000/svg" viewBox="0 0 74.35 74.35"><defs><style>.a{fill:#fff;}</style></defs><title>instagram</title><path class="a" d="M0,21.69V7.75A7.53,7.53,0,0,1,1.77,2.83,7.45,7.45,0,0,1,6.2.16V18.59h3.1V0h3.1V18.59h3.1V0h3.1V18.59h2.76a23.29,23.29,0,0,0-2.54,3.1ZM0,66.61V24.79H17.07a22.28,22.28,0,0,0,4.43,25,22.54,22.54,0,0,0,7.08,4.72,21.81,21.81,0,0,0,17.19,0,22.56,22.56,0,0,0,7.08-4.72,22,22,0,0,0,4.72-7.06,22.14,22.14,0,0,0-.29-17.92H74.35V66.61a7.72,7.72,0,0,1-7.75,7.75H7.75a7.46,7.46,0,0,1-5.47-2.28A7.46,7.46,0,0,1,0,66.61ZM22.37,42.66a17.21,17.21,0,0,1,0-17.16,17,17,0,0,1,6.23-6.23,17.21,17.21,0,0,1,17.16,0A17,17,0,0,1,52,25.5a17.21,17.21,0,0,1,0,17.16,17,17,0,0,1-6.23,6.23,17.21,17.21,0,0,1-17.16,0A17,17,0,0,1,22.37,42.66Zm-.68-24.41V0H66.61a7.46,7.46,0,0,1,5.47,2.28,7.46,7.46,0,0,1,2.28,5.47V21.69H55.55a22.09,22.09,0,0,0-7.88-7.13,22.17,22.17,0,0,0-18.93-1A22.62,22.62,0,0,0,21.69,18.25Zm6,6.32a13,13,0,0,0-3.93,9.51A13.43,13.43,0,0,0,37.18,47.52,13.43,13.43,0,0,0,50.62,34.08,13.43,13.43,0,0,0,37.18,20.63,13,13,0,0,0,27.67,24.57Zm28.1-9.08a3.12,3.12,0,0,0,3.1,3.1h6.2a3.12,3.12,0,0,0,3.1-3.1V9.29a3.12,3.12,0,0,0-3.1-3.1h-6.2a3.12,3.12,0,0,0-3.1,3.1Z"/></svg>