<svg xmlns="http://www.w3.org/2000/svg" viewBox="0 0 74.35 74.35"><defs><style>.a{fill:#fff;}</style></defs><title>twitter-bird</title><path class="a" d="M0,66.61V7.75A7.46,7.46,0,0,1,2.28,2.28,7.46,7.46,0,0,1,7.75,0H66.61a7.46,7.46,0,0,1,5.47,2.28,7.46,7.46,0,0,1,2.28,5.47V66.61a7.72,7.72,0,0,1-7.75,7.75H7.75a7.46,7.46,0,0,1-5.47-2.28A7.46,7.46,0,0,1,0,66.61Zm10.72-11a30.68,30.68,0,0,0,17,5,32.44,32.44,0,0,0,11.11-1.87,28.37,28.37,0,0,0,8.88-5,33.46,33.46,0,0,0,6.35-7.23A32.05,32.05,0,0,0,58,38,31.74,31.74,0,0,0,59.33,29q0-1,0-1.42a22.62,22.62,0,0,0,5.55-5.76,22.45,22.45,0,0,1-6.38,1.77,10.9,10.9,0,0,0,4.9-6.17,21,21,0,0,1-7.06,2.7,11.22,11.22,0,0,0-3.64-2.57,10.83,10.83,0,0,0-4.45-.93A11.16,11.16,0,0,0,37.08,27.76a11.15,11.15,0,0,0,.28,2.51A30.9,30.9,0,0,1,24.6,26.86a31.73,31.73,0,0,1-10.13-8.18A11.17,11.17,0,0,0,13,24.26a10.82,10.82,0,0,0,1.33,5.28,11.1,11.1,0,0,0,3.59,4,10.65,10.65,0,0,1-5-1.36v.12a10.75,10.75,0,0,0,2.54,7.06,10.85,10.85,0,0,0,6.38,3.84,11.79,11.79,0,0,1-5,.19,11.11,11.11,0,0,0,10.38,7.71A21.86,21.86,0,0,1,13.35,55.8,25,25,0,0,1,10.72,55.64Z"/></svg>