<svg xmlns="http://www.w3.org/2000/svg" viewBox="0 0 74.35 74.35"><defs><style>.a{fill:#fff;}</style></defs><title>youtube</title><path class="a" d="M0,66.61V7.75A7.46,7.46,0,0,1,2.28,2.28,7.46,7.46,0,0,1,7.75,0H66.61a7.46,7.46,0,0,1,5.47,2.28,7.46,7.46,0,0,1,2.28,5.47V66.61a7.72,7.72,0,0,1-7.75,7.75H7.75a7.46,7.46,0,0,1-5.47-2.28A7.46,7.46,0,0,1,0,66.61ZM15.49,52.67A9.31,9.31,0,0,0,24.79,62H49.57a9.31,9.31,0,0,0,9.29-9.29v-6.2a9.31,9.31,0,0,0-9.29-9.29H24.79a9.31,9.31,0,0,0-9.29,9.29ZM17.6,9.29l4.62,15.06v9.73h5.67V23.64L31.69,9.29H26.61l-2,8.06-2-8.06ZM20,43.78V41.24h8.27v2.54H25.53V58.71h-2.7V43.78ZM28.32,56.6V45.82H30.7V55.7a1.1,1.1,0,0,0,.16.68.56.56,0,0,0,.5.22,1.15,1.15,0,0,0,.65-.28,2.68,2.68,0,0,0,.74-.71V45.82h2.39V58.71H32.75V57.31a4.76,4.76,0,0,1-1.39,1.18,2.63,2.63,0,0,1-1.36.43,1.48,1.48,0,0,1-1.27-.59A2.89,2.89,0,0,1,28.32,56.6ZM31,29.09q0,1.15,0,1.64a5.89,5.89,0,0,0,.23,1.21,2.64,2.64,0,0,0,.67,1.18,5.48,5.48,0,0,0,1.52,1.18,4.32,4.32,0,0,0,1.86.34,5.15,5.15,0,0,0,3.81-1.46,5.6,5.6,0,0,0,1.18-4V20a5,5,0,0,0-1.21-3.75,4.67,4.67,0,0,0-3.41-1.46A5.31,5.31,0,0,0,32,16.2a2.75,2.75,0,0,0-.87,1.47A11.11,11.11,0,0,0,31,20Zm3.1.34V19.8a.25.25,0,0,1,.12-.19,1.78,1.78,0,0,1,.28-.17.85.85,0,0,0,.22-.14,1.7,1.7,0,0,1,1-.15,1.41,1.41,0,0,1,.87.19l.2.12.31.17c.09.05.14.11.14.17v9.64a.41.41,0,0,1-.12.26,1.41,1.41,0,0,1-.33.26l-.23.15a1.72,1.72,0,0,1-1.08.22q-.71,0-.84-.19L34.4,30a1.38,1.38,0,0,1-.23-.26A.53.53,0,0,1,34.08,29.43Zm3.41,29.28V41.24H39.9v5.64A3.59,3.59,0,0,1,41,46,2,2,0,0,1,42,45.67a2.06,2.06,0,0,1,1.74.81,4.1,4.1,0,0,1,.62,2.42V56a3.32,3.32,0,0,1-.59,2.11,1.89,1.89,0,0,1-1.61.74,2.8,2.8,0,0,1-1.27-.28,3.2,3.2,0,0,1-1-.9v1Zm2.42-2.45a2.45,2.45,0,0,0,.59.46,1,1,0,0,0,.56.15.72.72,0,0,0,.65-.28,1.39,1.39,0,0,0,.22-.9V49a1.67,1.67,0,0,0-.25-1,.91.91,0,0,0-.74-.34,1.16,1.16,0,0,0-.53.12,1.69,1.69,0,0,0-.5.4Zm3.45-24.92q0,.45,0,.65t0,.51a2,2,0,0,0,.11.51,1.93,1.93,0,0,0,.2.39,3.08,3.08,0,0,0,.79.81,2,2,0,0,0,1.07.25,4.83,4.83,0,0,0,2.48-.65,4.25,4.25,0,0,1,.53-.19,7.37,7.37,0,0,0,.7-.25c.2-.08.29-.17.29-.25v1h3.1V15.49h-3.1v13.6c0,.08-.1.17-.29.25a6.87,6.87,0,0,1-.65.23,2.1,2.1,0,0,0-.45.17,2.12,2.12,0,0,1-1.24.28.52.52,0,0,1-.46-.56v-14h-3.1V30.67Q43.37,30.89,43.36,31.34Zm2.83,23.75V49.29a3.69,3.69,0,0,1,1-2.73,3.51,3.51,0,0,1,2.63-1.05,3.21,3.21,0,0,1,2.51,1,4.05,4.05,0,0,1,.9,2.82v3.28H48.67V55a3,3,0,0,0,.22,1.39,1,1,0,0,0,.84.4,1,1,0,0,0,.84-.34A3,3,0,0,0,50.78,55v-.9h2.48v1a4.3,4.3,0,0,1-.9,3,3.46,3.46,0,0,1-2.7,1A3.27,3.27,0,0,1,47.12,58,4.37,4.37,0,0,1,46.19,55.08Zm2.48-4.49h2.11V49.26a2,2,0,0,0-.25-1.15,1.06,1.06,0,0,0-1.61,0,1.83,1.83,0,0,0-.25,1.15Z"/></svg>